REM DIRINDEX 1\2\6,1\2\7,1\2\8,1\3\9,1\3\10,1\3\11,1\4\12,1\4\13,1\4\14,1\5\15,1\5\16,1\5\17,1\5\18
REM DIRNAME cjc019,folder01,folder02,folder03,folder04,folder05,folder06,folder07,folder08,folder09,folder10,folder11,folder12,folder13,folder14,folder15,folder16,folder17
TITLE ""
FILE "2Q_t_1109-1125.mp3" MP3
  TRACK 01 AUDIO
    TITLE "12:cjc019_4280"
    INDEX 01 00:00:00
  TRACK 02 AUDIO
    TITLE "0:"
    INDEX 01 00:09:12
  TRACK 03 AUDIO
    TITLE "13:cjc019_4281"
    INDEX 01 00:10:27
  TRACK 04 AUDIO
    TITLE "0:"
    INDEX 01 00:11:54
  TRACK 05 AUDIO
    TITLE "14:cjc019_4282"
    INDEX 01 00:12:44
  TRACK 06 AUDIO
    TITLE "0:"
    INDEX 01 00:13:61
  TRACK 07 AUDIO
    TITLE "13:cjc019_4283"
    INDEX 01 00:14:39
  TRACK 08 AUDIO
    TITLE "0:"
    INDEX 01 00:15:48
  TRACK 09 AUDIO
    TITLE "14:cjc019_4284"
    INDEX 01 00:16:30
  TRACK 10 AUDIO
    TITLE "0:"
    INDEX 01 00:19:69
  TRACK 11 AUDIO
    TITLE "13:cjc019_4285"
    INDEX 01 00:20:47
  TRACK 12 AUDIO
    TITLE "0:"
    INDEX 01 00:22:01
  TRACK 13 AUDIO
    TITLE "14:cjc019_4286"
    INDEX 01 00:22:56
  TRACK 14 AUDIO
    TITLE "0:"
    INDEX 01 00:25:29
  TRACK 15 AUDIO
    TITLE "13:cjc019_4287"
    INDEX 01 00:26:09
  TRACK 16 AUDIO
    TITLE "0:"
    INDEX 01 00:27:20
  TRACK 17 AUDIO
    TITLE "14:cjc019_4288"
    INDEX 01 00:28:06
  TRACK 18 AUDIO
    TITLE "0:"
    INDEX 01 00:29:36
  TRACK 19 AUDIO
    TITLE "13:cjc019_4289"
    INDEX 01 00:30:16
  TRACK 20 AUDIO
    TITLE "0:"
    INDEX 01 00:31:35
  TRACK 21 AUDIO
    TITLE "14:cjc019_4290"
    INDEX 01 00:32:09
  TRACK 22 AUDIO
    TITLE "0:"
    INDEX 01 00:33:46
  TRACK 23 AUDIO
    TITLE "13:cjc019_4291"
    INDEX 01 00:34:26
  TRACK 24 AUDIO
    TITLE "0:"
    INDEX 01 00:35:43
  TRACK 25 AUDIO
    TITLE "14:cjc019_4292"
    INDEX 01 00:36:25
  TRACK 26 AUDIO
    TITLE "0:"
    INDEX 01 00:37:38
  TRACK 27 AUDIO
    TITLE "13:cjc019_4293"
    INDEX 01 00:38:18
  TRACK 28 AUDIO
    TITLE "0:"
    INDEX 01 00:39:47
  TRACK 29 AUDIO
    TITLE "14:cjc019_4294"
    INDEX 01 00:40:32
  TRACK 30 AUDIO
    TITLE "0:"
    INDEX 01 00:42:70
  TRACK 31 AUDIO
    TITLE "13:cjc019_4295"
    INDEX 01 00:43:52
  TRACK 32 AUDIO
    TITLE "0:"
    INDEX 01 00:45:08
  TRACK 33 AUDIO
    TITLE "14:cjc019_4296"
    INDEX 01 00:45:59
  TRACK 34 AUDIO
    TITLE "0:"
    INDEX 01 00:48:20
  TRACK 35 AUDIO
    TITLE "13:cjc019_4297"
    INDEX 01 00:48:73
  TRACK 36 AUDIO
    TITLE "0:"
    INDEX 01 00:50:13
  TRACK 37 AUDIO
    TITLE "14:cjc019_4298"
    INDEX 01 00:51:01
  TRACK 38 AUDIO
    TITLE "0:"
    INDEX 01 00:52:30
  TRACK 39 AUDIO
    TITLE "13:cjc019_4299"
    INDEX 01 00:53:13
  TRACK 40 AUDIO
    TITLE "0:"
    INDEX 01 00:54:36
  TRACK 41 AUDIO
    TITLE "14:cjc019_4300"
    INDEX 01 00:55:16
  TRACK 42 AUDIO
    TITLE "0:"
    INDEX 01 00:56:47
  TRACK 43 AUDIO
    TITLE "13:cjc019_4301"
    INDEX 01 00:57:25
  TRACK 44 AUDIO
    TITLE "0:"
    INDEX 01 00:58:36
  TRACK 45 AUDIO
    TITLE "14:cjc019_4302"
    INDEX 01 00:59:18
  TRACK 46 AUDIO
    TITLE "0:"
    INDEX 01 01:00:35
  TRACK 47 AUDIO
    TITLE "13:cjc019_4303"
    INDEX 01 01:01:13
  TRACK 48 AUDIO
    TITLE "0:"
    INDEX 01 01:02:40
  TRACK 49 AUDIO
    TITLE "14:cjc019_4304"
    INDEX 01 01:03:29
  TRACK 50 AUDIO
    TITLE "0:"
    INDEX 01 01:06:67
  TRACK 51 AUDIO
    TITLE "13:cjc019_4305"
    INDEX 01 01:07:47
  TRACK 52 AUDIO
    TITLE "0:"
    INDEX 01 01:08:46
  TRACK 53 AUDIO
    TITLE "14:cjc019_4306"
    INDEX 01 01:09:32
  TRACK 54 AUDIO
    TITLE "0:"
    INDEX 01 01:13:04
  TRACK 55 AUDIO
    TITLE "13:cjc019_4307"
    INDEX 01 01:13:61
  TRACK 56 AUDIO
    TITLE "0:"
    INDEX 01 01:15:23
  TRACK 57 AUDIO
    TITLE "14:cjc019_4308"
    INDEX 01 01:16:12
  TRACK 58 AUDIO
    TITLE "0:"
    INDEX 01 01:19:07
  TRACK 59 AUDIO
    TITLE "13:cjc019_4309"
    INDEX 01 01:19:66
  TRACK 60 AUDIO
    TITLE "0:"
    INDEX 01 01:21:10
  TRACK 61 AUDIO
    TITLE "14:cjc019_4310"
    INDEX 01 01:22:01
  TRACK 62 AUDIO
    TITLE "0:"
    INDEX 01 01:24:47
  TRACK 63 AUDIO
    TITLE "13:cjc019_4311"
    INDEX 01 01:25:27
  TRACK 64 AUDIO
    TITLE "0:"
    INDEX 01 01:26:50
  TRACK 65 AUDIO
    TITLE "14:cjc019_4312"
    INDEX 01 01:27:36
  TRACK 66 AUDIO
    TITLE "0:"
    INDEX 01 01:30:64
  TRACK 67 AUDIO
    TITLE "13:cjc019_4313"
    INDEX 01 01:31:47
  TRACK 68 AUDIO
    TITLE "0:"
    INDEX 01 01:32:62
  TRACK 69 AUDIO
    TITLE "14:cjc019_4314"
    INDEX 01 01:33:48
  TRACK 70 AUDIO
    TITLE "0:"
    INDEX 01 01:36:07
